<svg width="29" height="28" viewBox="0 0 29 28" fill="none" xmlns="http://www.w3.org/2000/svg">
<path d="M18.8529 7.97408L19.2279 8.6236H19.2279L18.8529 7.97408ZM22.0403 8.82814L22.6898 8.45314L22.6898 8.45314L22.0403 8.82814ZM22.6237 9.83851L21.9741 10.2135V10.2135L22.6237 9.83851ZM21.7696 13.0259L22.1446 13.6754L21.7696 13.0259ZM21.7696 14.9741L21.3946 15.6236L21.7696 14.9741ZM22.6237 18.1615L23.2732 18.5365L22.6237 18.1615ZM22.0404 19.1718L21.3908 18.7968L22.0404 19.1718ZM18.853 20.0259L19.228 19.3764H19.228L18.853 20.0259ZM9.64525 20.0259L9.27025 19.3764H9.27025L9.64525 20.0259ZM6.45785 19.1718L7.10737 18.7968V18.7968L6.45785 19.1718ZM5.87452 18.1615L5.225 18.5365H5.225L5.87452 18.1615ZM6.72858 14.9741L6.35358 14.3246H6.35358L6.72858 14.9741ZM6.72861 13.0259L6.35361 13.6754L6.72861 13.0259ZM5.87455 9.83851L5.22503 9.46351H5.22503L5.87455 9.83851ZM6.45788 8.82814L7.1074 9.20314V9.20314L6.45788 8.82814ZM9.64527 7.97408L9.27027 8.6236L9.64527 7.97408ZM13.6657 3.91669C11.9628 3.91669 10.5823 5.29714 10.5823 7.00002H12.0823C12.0823 6.12557 12.7912 5.41669 13.6657 5.41669V3.91669ZM14.8323 3.91669H13.6657V5.41669H14.8323V3.91669ZM17.9157 7.00002C17.9157 5.29714 16.5352 3.91669 14.8323 3.91669V5.41669C15.7068 5.41669 16.4157 6.12557 16.4157 7.00002H17.9157ZM22.6898 8.45314C21.8384 6.97841 19.9527 6.47313 18.4779 7.32456L19.2279 8.6236C19.9852 8.18638 20.9536 8.44585 21.3908 9.20314L22.6898 8.45314ZM23.2732 9.46351L22.6898 8.45314L21.3908 9.20314L21.9741 10.2135L23.2732 9.46351ZM22.1446 13.6754C23.6193 12.824 24.1246 10.9382 23.2732 9.46351L21.9741 10.2135C22.4114 10.9708 22.1519 11.9392 21.3946 12.3764L22.1446 13.6754ZM23.2732 18.5365C24.1246 17.0617 23.6194 15.176 22.1446 14.3246L21.3946 15.6236C22.1519 16.0608 22.4114 17.0292 21.9742 17.7865L23.2732 18.5365ZM22.6899 19.5468L23.2732 18.5365L21.9742 17.7865L21.3908 18.7968L22.6899 19.5468ZM18.478 20.6754C19.9527 21.5269 21.8384 21.0216 22.6899 19.5468L21.3908 18.7968C20.9536 19.5541 19.9853 19.8136 19.228 19.3764L18.478 20.6754ZM14.8323 24.0834C16.5352 24.0834 17.9157 22.7029 17.9157 21H16.4157C16.4157 21.8745 15.7068 22.5834 14.8323 22.5834V24.0834ZM13.6657 24.0834H14.8323V22.5834H13.6657V24.0834ZM10.5823 21C10.5823 22.7029 11.9628 24.0834 13.6657 24.0834V22.5834C12.7912 22.5834 12.0823 21.8745 12.0823 21H10.5823ZM5.80833 19.5468C6.65977 21.0216 8.54551 21.5269 10.0202 20.6754L9.27025 19.3764C8.51295 19.8136 7.5446 19.5541 7.10737 18.7968L5.80833 19.5468ZM5.225 18.5365L5.80833 19.5468L7.10737 18.7968L6.52404 17.7865L5.225 18.5365ZM6.35358 14.3246C4.87884 15.176 4.37356 17.0617 5.225 18.5365L6.52404 17.7865C6.08681 17.0292 6.34628 16.0608 7.10358 15.6236L6.35358 14.3246ZM5.22503 9.46351C4.37359 10.9382 4.87887 12.824 6.35361 13.6754L7.10361 12.3764C6.34631 11.9392 6.08684 10.9708 6.52407 10.2135L5.22503 9.46351ZM5.80836 8.45314L5.22503 9.46351L6.52407 10.2135L7.1074 9.20314L5.80836 8.45314ZM10.0203 7.32456C8.54554 6.47313 6.6598 6.97841 5.80836 8.45314L7.1074 9.20314C7.54463 8.44585 8.51298 8.18638 9.27027 8.6236L10.0203 7.32456ZM9.27027 8.6236C10.5201 9.3452 12.0823 8.44312 12.0823 7.00002H10.5823C10.5823 7.28851 10.27 7.46877 10.0203 7.32456L9.27027 8.6236ZM7.10358 15.6236C8.3534 14.902 8.35349 13.098 7.10361 12.3764L6.35361 13.6754C6.60343 13.8197 6.60346 14.1803 6.35358 14.3246L7.10358 15.6236ZM12.0823 21C12.0823 19.557 10.5201 18.6548 9.27025 19.3764L10.0202 20.6754C10.27 20.5312 10.5823 20.7115 10.5823 21H12.0823ZM19.228 19.3764C17.9781 18.6548 16.4157 19.5567 16.4157 21H17.9157C17.9157 20.7115 18.228 20.5311 18.478 20.6754L19.228 19.3764ZM21.3946 12.3764C20.1447 13.098 20.1448 14.902 21.3946 15.6236L22.1446 14.3246C21.8947 14.1803 21.8948 13.8197 22.1446 13.6754L21.3946 12.3764ZM16.4157 7.00002C16.4157 8.44334 17.9782 9.34517 19.2279 8.6236L18.4779 7.32456C18.228 7.46887 17.9157 7.28845 17.9157 7.00002H16.4157ZM16.0445 13.9999C16.0445 14.9915 15.2407 15.7954 14.2491 15.7954V17.2954C16.0691 17.2954 17.5445 15.82 17.5445 13.9999H16.0445ZM14.2491 15.7954C13.2575 15.7954 12.4536 14.9915 12.4536 13.9999H10.9536C10.9536 15.82 12.429 17.2954 14.2491 17.2954V15.7954ZM12.4536 13.9999C12.4536 13.0083 13.2575 12.2045 14.2491 12.2045V10.7045C12.429 10.7045 10.9536 12.1799 10.9536 13.9999H12.4536ZM14.2491 12.2045C15.2407 12.2045 16.0445 13.0083 16.0445 13.9999H17.5445C17.5445 12.1799 16.0691 10.7045 14.2491 10.7045V12.2045Z" fill="#131214"/>
</svg>
